<svg xmlns="http://www.w3.org/2000/svg" xmlns:xlink="http://www.w3.org/1999/xlink" width="500" zoomAndPan="magnify" viewBox="0 0 375 374.999991" height="500" preserveAspectRatio="xMidYMid meet" version="1.0"><defs><clipPath id="5788fb7555"><path d="M 162.078125 141.585938 L 260.664062 141.585938 L 260.664062 299.480469 L 162.078125 299.480469 Z M 162.078125 141.585938 " clip-rule="nonzero"/></clipPath><clipPath id="cb0eb2fc5b"><path d="M 0 29.484375 L 375 29.484375 L 375 299.484375 L 0 299.484375 Z M 0 29.484375 " clip-rule="nonzero"/></clipPath></defs><g clip-path="url(#5788fb7555)"><path fill="#30a340" d="M 245.734375 218.375 C 260.015625 194.765625 263.46875 167.628906 257.527344 142.753906 C 225.359375 138.121094 192.066406 152.601562 174.191406 182.15625 C 173.722656 182.925781 173.277344 183.699219 172.835938 184.476562 C 172.699219 184.722656 172.566406 184.972656 172.433594 185.222656 C 172.136719 185.757812 171.847656 186.296875 171.566406 186.835938 C 171.414062 187.121094 171.269531 187.410156 171.125 187.703125 C 170.859375 188.21875 170.601562 188.738281 170.351562 189.261719 C 170.214844 189.546875 170.074219 189.828125 169.945312 190.113281 C 169.675781 190.683594 169.417969 191.261719 169.164062 191.835938 C 169.066406 192.066406 168.960938 192.289062 168.859375 192.519531 C 168.519531 193.324219 168.183594 194.128906 167.867188 194.9375 C 167.820312 195.058594 167.78125 195.175781 167.734375 195.296875 C 167.464844 195.988281 167.207031 196.683594 166.957031 197.382812 C 166.863281 197.648438 166.773438 197.910156 166.683594 198.175781 C 166.488281 198.734375 166.296875 199.300781 166.117188 199.863281 C 166.027344 200.152344 165.933594 200.441406 165.84375 200.730469 C 165.671875 201.296875 165.503906 201.855469 165.34375 202.425781 C 165.265625 202.691406 165.1875 202.960938 165.113281 203.226562 C 164.929688 203.894531 164.757812 204.5625 164.589844 205.234375 C 164.550781 205.394531 164.507812 205.554688 164.46875 205.714844 C 164.261719 206.5625 164.070312 207.410156 163.894531 208.257812 C 163.867188 208.394531 163.84375 208.527344 163.8125 208.667969 C 163.671875 209.371094 163.535156 210.074219 163.410156 210.78125 C 163.371094 211.023438 163.328125 211.265625 163.289062 211.511719 C 163.1875 212.125 163.089844 212.738281 163.003906 213.351562 C 162.964844 213.605469 162.929688 213.859375 162.894531 214.109375 C 162.808594 214.753906 162.730469 215.398438 162.660156 216.039062 C 162.636719 216.246094 162.609375 216.449219 162.589844 216.65625 C 162.410156 218.386719 162.28125 220.117188 162.214844 221.851562 C 162.210938 221.9375 162.207031 222.027344 162.203125 222.109375 C 162.175781 222.882812 162.160156 223.652344 162.152344 224.421875 C 162.148438 224.597656 162.148438 224.777344 162.148438 224.949219 C 162.148438 225.65625 162.152344 226.359375 162.167969 227.0625 C 162.171875 227.230469 162.175781 227.394531 162.179688 227.566406 C 162.203125 228.34375 162.234375 229.125 162.277344 229.902344 C 162.28125 229.972656 162.28125 230.042969 162.289062 230.109375 C 162.441406 232.765625 162.726562 235.414062 163.132812 238.035156 C 163.144531 238.109375 163.15625 238.179688 163.167969 238.253906 C 163.296875 239.078125 163.441406 239.902344 163.59375 240.726562 C 163.601562 240.761719 163.609375 240.800781 163.613281 240.839844 C 164.617188 246.121094 166.125 251.300781 168.121094 256.300781 C 168.199219 256.488281 168.277344 256.671875 168.351562 256.855469 C 168.566406 257.382812 168.789062 257.910156 169.011719 258.433594 C 183.339844 222.242188 206.605469 181.492188 236.675781 167.457031 C 188.371094 211.851562 168.34375 289.1875 167.753906 299.480469 L 182.457031 299.480469 C 183.332031 290.484375 184.214844 273.3125 186.296875 263.371094 C 210.265625 256.753906 231.851562 241.332031 245.734375 218.375 " fill-opacity="1" fill-rule="nonzero"/></g><path fill="#30a340" d="M 152.515625 214.886719 C 152.59375 214.195312 152.683594 213.464844 152.78125 212.738281 L 152.894531 211.925781 C 152.996094 211.214844 153.105469 210.523438 153.21875 209.835938 L 153.363281 208.984375 C 153.503906 208.195312 153.652344 207.410156 153.816406 206.621094 L 153.902344 206.171875 C 154.101562 205.21875 154.316406 204.269531 154.546875 203.320312 L 154.703125 202.710938 C 154.871094 202.019531 155.066406 201.261719 155.273438 200.507812 C 155.34375 200.265625 155.53125 199.601562 155.53125 199.601562 C 155.707031 198.992188 155.890625 198.371094 156.078125 197.753906 L 156.390625 196.769531 C 156.601562 196.117188 156.816406 195.476562 157.039062 194.835938 C 157.039062 194.835938 157.28125 194.128906 157.355469 193.921875 C 157.625 193.167969 157.917969 192.378906 158.222656 191.59375 C 158.273438 191.449219 158.328125 191.304688 158.386719 191.160156 C 158.722656 190.308594 159.09375 189.410156 159.472656 188.515625 L 159.828125 187.710938 C 160.109375 187.078125 160.394531 186.445312 160.6875 185.8125 C 160.824219 185.515625 160.96875 185.21875 161.113281 184.921875 L 161.164062 184.816406 C 161.425781 184.265625 161.722656 183.667969 162.023438 183.074219 C 162.179688 182.769531 162.355469 182.421875 162.535156 182.074219 C 162.828125 181.515625 163.144531 180.929688 163.464844 180.347656 C 163.613281 180.066406 163.765625 179.789062 163.921875 179.507812 C 164.433594 178.597656 164.9375 177.726562 165.464844 176.863281 C 165.738281 176.40625 166.027344 175.960938 166.3125 175.507812 C 158.679688 163.867188 149.429688 152.355469 138.273438 142.105469 C 150.105469 147.625 160.804688 157.5625 170.242188 169.734375 C 176.277344 161.554688 183.601562 154.410156 191.902344 148.601562 C 174.378906 125.820312 146.113281 114.984375 118.714844 118.929688 C 113.140625 142.265625 116.382812 167.71875 129.777344 189.867188 C 135.910156 200.007812 143.640625 208.574219 152.453125 215.453125 C 152.476562 215.238281 152.515625 214.886719 152.515625 214.886719 " fill-opacity="1" fill-rule="nonzero"/><g clip-path="url(#cb0eb2fc5b)"><path fill="#ffffff" d="M 339.609375 146.015625 L 302.558594 117.628906 L 302.558594 52.785156 L 240.382812 52.785156 L 240.382812 69.996094 L 196.625 36.46875 L 187.503906 29.484375 L 178.382812 36.46875 L 35.394531 146.015625 L 0.285156 172.917969 L 71.582031 172.917969 L 71.582031 299.480469 L 148.714844 299.480469 L 152.242188 284.484375 L 86.578125 284.484375 L 86.578125 157.921875 L 44.515625 157.921875 L 187.503906 48.375 L 255.378906 100.375 L 255.378906 67.777344 L 287.5625 67.777344 L 287.5625 125.03125 L 330.492188 157.921875 L 288.429688 157.921875 L 288.429688 284.484375 L 200.246094 284.484375 L 200.246094 299.480469 L 303.425781 299.480469 L 303.425781 172.917969 L 374.722656 172.917969 L 339.609375 146.015625 " fill-opacity="1" fill-rule="nonzero"/></g></svg>