<svg xmlns="http://www.w3.org/2000/svg" xmlns:xlink="http://www.w3.org/1999/xlink" width="500" zoomAndPan="magnify" viewBox="0 0 375 374.999991" height="500" preserveAspectRatio="xMidYMid meet" version="1.0"><defs><clipPath id="b0b7b6d374"><path d="M 162.078125 164.601562 L 260.664062 164.601562 L 260.664062 322.496094 L 162.078125 322.496094 Z M 162.078125 164.601562 " clip-rule="nonzero"/></clipPath><clipPath id="30d35bdc7d"><path d="M 0 52.5 L 375 52.5 L 375 322.5 L 0 322.5 Z M 0 52.5 " clip-rule="nonzero"/></clipPath></defs><g clip-path="url(#b0b7b6d374)"><path fill="#222b29" d="M 245.734375 241.394531 C 260.015625 217.78125 263.46875 190.648438 257.527344 165.769531 C 225.359375 161.136719 192.066406 175.617188 174.191406 205.171875 C 173.722656 205.941406 173.277344 206.714844 172.835938 207.492188 C 172.699219 207.742188 172.566406 207.988281 172.433594 208.238281 C 172.136719 208.773438 171.847656 209.3125 171.566406 209.851562 C 171.414062 210.140625 171.269531 210.429688 171.125 210.71875 C 170.859375 211.238281 170.601562 211.757812 170.351562 212.277344 C 170.214844 212.5625 170.074219 212.847656 169.945312 213.132812 C 169.675781 213.703125 169.417969 214.277344 169.164062 214.851562 C 169.066406 215.082031 168.960938 215.308594 168.859375 215.535156 C 168.519531 216.339844 168.183594 217.148438 167.867188 217.957031 C 167.820312 218.074219 167.78125 218.195312 167.734375 218.3125 C 167.464844 219.003906 167.207031 219.703125 166.957031 220.402344 C 166.863281 220.664062 166.773438 220.929688 166.683594 221.191406 C 166.488281 221.753906 166.296875 222.316406 166.117188 222.878906 C 166.027344 223.171875 165.933594 223.457031 165.84375 223.746094 C 165.671875 224.3125 165.503906 224.875 165.34375 225.441406 C 165.265625 225.707031 165.1875 225.976562 165.113281 226.246094 C 164.929688 226.914062 164.757812 227.582031 164.589844 228.25 C 164.550781 228.410156 164.507812 228.570312 164.46875 228.734375 C 164.261719 229.578125 164.070312 230.425781 163.894531 231.273438 C 163.867188 231.410156 163.84375 231.546875 163.8125 231.683594 C 163.671875 232.386719 163.535156 233.09375 163.410156 233.796875 C 163.371094 234.042969 163.328125 234.285156 163.289062 234.527344 C 163.1875 235.140625 163.089844 235.753906 163.003906 236.367188 C 162.964844 236.621094 162.929688 236.875 162.894531 237.128906 C 162.808594 237.769531 162.730469 238.414062 162.660156 239.054688 C 162.636719 239.261719 162.609375 239.464844 162.589844 239.671875 C 162.410156 241.402344 162.28125 243.136719 162.214844 244.867188 C 162.210938 244.957031 162.207031 245.042969 162.203125 245.128906 C 162.175781 245.898438 162.160156 246.671875 162.152344 247.4375 C 162.148438 247.613281 162.148438 247.792969 162.148438 247.96875 C 162.148438 248.671875 162.152344 249.375 162.167969 250.078125 C 162.171875 250.246094 162.175781 250.414062 162.179688 250.582031 C 162.203125 251.363281 162.234375 252.140625 162.277344 252.921875 C 162.28125 252.988281 162.28125 253.058594 162.289062 253.125 C 162.441406 255.785156 162.726562 258.429688 163.132812 261.050781 C 163.144531 261.125 163.15625 261.199219 163.167969 261.269531 C 163.296875 262.097656 163.441406 262.921875 163.59375 263.742188 C 163.601562 263.777344 163.609375 263.816406 163.613281 263.855469 C 164.617188 269.140625 166.125 274.316406 168.121094 279.316406 C 168.199219 279.507812 168.277344 279.6875 168.351562 279.875 C 168.566406 280.402344 168.789062 280.925781 169.011719 281.449219 C 183.339844 245.257812 206.605469 204.507812 236.675781 190.476562 C 188.371094 234.871094 168.34375 312.207031 167.753906 322.496094 L 182.457031 322.496094 C 183.332031 313.5 184.214844 296.328125 186.296875 286.386719 C 210.265625 279.773438 231.851562 264.347656 245.734375 241.394531 " fill-opacity="1" fill-rule="nonzero"/></g><path fill="#222b29" d="M 152.515625 237.902344 C 152.59375 237.210938 152.683594 236.480469 152.78125 235.753906 L 152.894531 234.945312 C 152.996094 234.230469 153.105469 233.542969 153.21875 232.851562 L 153.363281 232 C 153.503906 231.214844 153.652344 230.425781 153.816406 229.640625 L 153.902344 229.191406 C 154.101562 228.234375 154.316406 227.289062 154.546875 226.335938 L 154.703125 225.726562 C 154.871094 225.035156 155.066406 224.277344 155.273438 223.527344 C 155.34375 223.28125 155.53125 222.621094 155.53125 222.621094 C 155.707031 222.007812 155.890625 221.390625 156.078125 220.773438 L 156.390625 219.789062 C 156.601562 219.132812 156.816406 218.492188 157.039062 217.851562 C 157.039062 217.851562 157.28125 217.144531 157.355469 216.9375 C 157.625 216.183594 157.917969 215.394531 158.222656 214.613281 C 158.273438 214.46875 158.328125 214.320312 158.386719 214.175781 C 158.722656 213.324219 159.09375 212.425781 159.472656 211.53125 L 159.828125 210.730469 C 160.109375 210.09375 160.394531 209.460938 160.6875 208.832031 C 160.824219 208.53125 160.96875 208.234375 161.113281 207.9375 L 161.164062 207.832031 C 161.425781 207.28125 161.722656 206.6875 162.023438 206.089844 C 162.179688 205.785156 162.355469 205.4375 162.535156 205.089844 C 162.828125 204.53125 163.144531 203.945312 163.464844 203.363281 C 163.613281 203.082031 163.765625 202.804688 163.921875 202.527344 C 164.433594 201.613281 164.9375 200.746094 165.464844 199.882812 C 165.738281 199.421875 166.027344 198.976562 166.3125 198.527344 C 158.679688 186.882812 149.429688 175.371094 138.273438 165.121094 C 150.105469 170.640625 160.804688 180.578125 170.242188 192.753906 C 176.277344 184.570312 183.601562 177.425781 191.902344 171.621094 C 174.378906 148.839844 146.113281 138 118.714844 141.949219 C 113.140625 165.28125 116.382812 190.734375 129.777344 212.886719 C 135.910156 223.023438 143.640625 231.59375 152.453125 238.472656 C 152.476562 238.253906 152.515625 237.902344 152.515625 237.902344 " fill-opacity="1" fill-rule="nonzero"/><g clip-path="url(#30d35bdc7d)"><path fill="#ffffff" d="M 339.609375 169.035156 L 302.558594 140.644531 L 302.558594 75.800781 L 240.382812 75.800781 L 240.382812 93.011719 L 196.625 59.484375 L 187.503906 52.5 L 178.382812 59.484375 L 35.394531 169.035156 L 0.285156 195.933594 L 71.582031 195.933594 L 71.582031 322.496094 L 148.714844 322.496094 L 152.242188 307.5 L 86.578125 307.5 L 86.578125 180.9375 L 44.515625 180.9375 L 187.503906 71.390625 L 255.378906 123.390625 L 255.378906 90.796875 L 287.5625 90.796875 L 287.5625 148.046875 L 330.492188 180.9375 L 288.429688 180.9375 L 288.429688 307.5 L 200.246094 307.5 L 200.246094 322.496094 L 303.425781 322.496094 L 303.425781 195.933594 L 374.722656 195.933594 L 339.609375 169.035156 " fill-opacity="1" fill-rule="nonzero"/></g></svg>